<svg width="100" height="44" viewBox="0 0 100 44" fill="none" xmlns="http://www.w3.org/2000/svg">
<path d="M12.6042 7.95411L16.0588 7.21419C18.403 6.59759 20.994 5.981 23.9551 5.3644C28.6434 4.1312 32.9617 3.26797 36.7864 2.77469C39.0072 2.40473 41.228 2.15809 43.4488 2.15809C46.2866 2.03477 48.2606 2.28141 49.7411 2.65137C52.0853 3.39129 53.3191 4.50116 53.8126 6.22764C54.1828 7.21419 54.0594 8.20075 53.5659 9.06399C53.5659 9.1873 53.3191 9.31063 53.0724 9.43394L52.4555 9.92722L51.8386 10.2972C51.3451 10.6671 51.2217 11.1604 51.2217 11.4071C51.3451 11.777 51.5918 12.0237 52.2087 12.147C52.4555 12.147 52.5788 12.147 52.8256 12.147C53.8126 12.147 54.6763 11.6537 55.2932 10.6671C56.0334 9.68058 56.527 8.69403 56.6503 7.46083C56.7737 5.61104 56.0334 4.00788 54.4295 2.52805C53.0724 1.29485 50.8516 0.554938 47.6437 0.184979C45.9164 -0.0616598 43.6956 -0.0616598 40.9813 0.184979C37.1565 0.431618 32.5915 1.17154 27.4097 2.28141L14.2082 5.73436L12.2341 6.10432L10.3834 6.59759L9.51978 6.72091L8.65613 6.84423C7.91586 6.96755 7.29896 7.09087 6.80545 7.09087C5.07815 6.96755 3.84437 6.35096 3.1041 4.99444C2.61058 4.1312 2.11707 3.63793 1.50018 3.63793L1.00666 3.76125L0.636528 3.88457L0.513149 4.00788C0.389771 4.1312 -0.103743 4.37784 0.0196357 4.99444C0.389771 6.84423 1.74693 8.07743 3.96775 8.69403C4.70802 8.94067 5.69504 9.06399 6.68207 8.94067C7.91586 8.81735 9.27302 8.69403 10.6302 8.44739L12.6042 7.95411Z" fill="white"/>
<path d="M25.5589 6.59766C25.8057 6.2277 25.6823 5.98106 25.5589 5.73442C25.4355 5.48778 25.1888 5.36446 24.942 5.36446C24.6953 5.24114 24.3251 5.24114 23.8316 5.36446C23.4615 5.48778 23.0914 5.6111 22.968 5.73442H22.8446C22.7212 5.85774 22.4745 6.2277 22.3511 6.72098L21.3641 8.94073C20.8705 9.92729 20.5004 10.6672 20.2537 11.2838C18.7731 14.4901 17.7861 16.7099 17.0458 18.5597C15.4419 22.1359 13.5912 27.192 11.4938 33.358L8.90284 41.7437C8.77946 41.9904 8.77946 42.237 8.90284 42.3603C9.02622 42.4836 9.14959 42.7303 9.64311 42.8536C9.88986 42.8536 10.1366 42.9769 10.3834 42.9769C10.6301 42.9769 10.8769 42.9769 11.1236 42.7303C11.6172 42.4836 11.8639 41.9904 12.1107 41.2505L12.3574 40.3872L13.838 35.3311C14.3315 33.358 14.9484 32.0015 15.3185 31.0149C17.4159 24.8489 19.6368 19.2996 21.981 13.9968C22.5978 12.6403 23.8316 10.0506 25.5589 6.59766Z" fill="white"/>
<path d="M98.9692 29.2884C98.8458 29.1651 98.5991 29.0418 98.4757 29.0418C98.3523 29.0418 98.1056 29.0418 96.3783 30.8916L93.7873 33.4813C93.2938 33.9746 92.8003 34.3445 92.4302 34.7145C92.1834 34.8378 92.06 35.0844 91.9366 35.2077C91.5665 35.5777 91.1964 35.9477 90.8262 36.1943C89.4691 37.1809 88.6054 37.6741 88.1119 37.6741C87.8652 37.6741 87.7418 37.3042 87.7418 36.9342V34.8378C87.9885 31.3848 89.0989 28.3019 91.073 25.7121V25.5888C91.073 25.4655 91.073 25.4655 91.1964 25.3422C91.1964 25.2189 91.3197 25.0955 91.3197 24.9722C91.3197 24.6023 91.073 24.3556 90.8262 24.109C90.5795 23.8623 90.3327 23.739 89.9626 23.739C89.7158 23.739 89.3457 23.9857 88.2353 25.2189L87.6184 25.8355L87.1249 26.4521C86.7547 26.822 86.508 27.0687 86.2612 27.3153C85.2742 28.3019 84.1638 29.2884 82.93 30.275L82.5599 30.5216C82.1897 30.7682 81.8196 31.0149 81.5728 31.2615C81.4495 31.3848 81.3261 31.3848 81.2027 31.5082L81.0793 31.6315C81.2027 31.2615 81.4495 30.6449 81.8196 30.0283C82.1897 29.4117 82.5599 28.9185 82.8066 28.5485C82.8066 28.6718 82.93 28.7951 82.93 28.7951C83.0534 28.9185 83.3001 28.9185 83.5469 28.9185C83.917 28.9185 84.1638 28.7951 84.2872 28.5485C84.5339 28.1785 84.5339 28.1785 84.5339 27.9319V27.8086C84.5339 26.822 84.1638 26.5754 83.1768 26.3287H83.0534C82.0664 26.3287 81.0793 26.9453 79.9689 28.1785C79.352 28.9185 78.8585 29.7817 78.4884 30.6449C78.365 30.7682 78.365 30.7682 78.2416 30.8916L77.6247 31.5082C77.5014 31.6315 77.5014 31.6315 77.2546 31.8781L77.1312 32.0014L76.8845 32.2481C76.6377 32.4947 76.391 32.7414 76.1442 32.988C76.0208 33.1113 75.8974 33.2346 75.7741 33.358C74.1701 34.8378 73.5532 34.8378 73.4299 34.8378H73.1831C73.1831 34.5912 73.1831 34.4678 73.3065 34.0979L73.6766 32.988C73.9234 32.2481 74.1701 31.5082 74.1701 31.1382C74.1701 30.5216 73.8 29.905 73.1831 29.5351C72.6896 29.2884 72.0727 29.1651 71.5792 29.1651C69.6051 29.1651 67.2609 30.1516 64.5466 32.1248C64.1765 32.4947 63.683 32.8647 63.1895 33.2346C63.0661 33.358 62.8193 33.6046 62.6959 33.7279C62.5726 33.8512 62.3258 34.0979 62.2024 34.2212L61.9557 34.4678L62.6959 32.3714L63.1895 30.6449L63.8064 28.7951V28.5485C63.8064 28.1785 63.5596 27.9319 63.3128 27.8086C63.0661 27.6853 62.8193 27.5619 62.4492 27.5619C62.079 27.5619 61.7089 27.8086 60.9686 29.2884C60.5985 29.6584 60.2284 30.0283 59.6115 30.5216L58.6245 31.5082L57.6374 32.4947C57.0205 33.1113 56.6504 33.4813 56.4036 33.7279L56.2803 33.8512H56.1569L55.6634 34.2212C55.2932 34.4678 54.9231 34.7145 54.553 34.8378C53.9361 35.2077 53.6893 35.2077 53.6893 35.2077C53.6893 35.2077 53.6893 35.2077 53.6893 35.0844C53.6893 34.3445 54.0594 32.988 54.6763 31.0149L55.0465 29.7817L55.54 28.5485C55.7868 28.0552 55.9101 27.5619 56.0335 27.192C56.1569 26.822 56.2803 26.4521 56.4036 26.2054L56.527 25.4655C56.527 25.2189 56.4036 24.9722 56.0335 24.7256C55.9101 24.7256 55.6634 24.6023 55.54 24.6023C55.4166 24.6023 55.2932 24.6023 55.1699 24.6023C54.7997 24.6023 54.0594 25.0955 51.962 27.192C51.2217 27.9319 50.4815 28.6718 49.988 29.1651C49.8646 29.2884 49.7412 29.2884 49.6178 29.4117C49.3711 29.6584 49.0009 29.905 48.6308 30.3983C48.5074 30.5216 48.384 30.7682 48.1373 30.8916C48.0139 31.0149 47.7671 31.2615 47.6438 31.3848L46.5334 32.4947C44.6827 34.5912 43.3255 35.8243 42.7086 36.3176C41.4748 37.4275 40.1177 38.5374 38.6371 39.5239C36.5397 41.0038 35.3059 41.2504 34.689 41.2504C34.5657 41.2504 34.4423 41.2504 34.1955 41.1271C34.0721 41.1271 34.0721 41.0038 34.0721 40.7571C34.0721 39.7706 34.689 38.5374 35.7994 36.9342L36.5397 36.071L37.28 35.3311C37.8969 34.7145 38.267 34.2212 38.3904 33.9746C39.254 32.8647 39.8709 31.7548 40.4878 30.6449C40.858 29.6584 41.1047 28.9185 41.1047 28.4252V28.3019C41.1047 27.0687 40.3644 25.8355 39.0073 24.6023C37.28 23.1224 37.1566 22.7525 37.1566 22.7525C37.1566 22.6292 37.28 22.1359 38.1436 20.9027C38.7605 19.9161 39.1307 19.0529 39.1307 18.5596C39.1307 17.6964 38.6371 17.3264 37.6501 17.3264C36.6631 17.3264 35.7994 17.5731 35.0592 18.1897C34.1955 18.8063 33.702 19.6695 33.702 20.656C33.702 21.7659 34.0721 22.7525 34.9358 23.739C34.3189 24.8489 33.5786 26.0821 32.5916 27.3153C32.3448 27.5619 32.2215 27.8086 31.8513 28.0552C31.6046 28.3019 31.3578 28.5485 31.1111 28.9185L29.7539 30.3983C29.2604 30.8916 28.7669 31.3848 28.3967 31.8781L27.6565 32.4947L27.0396 33.1113C26.5461 33.6046 26.1759 33.9746 25.6824 34.2212C24.572 35.0844 23.8317 34.9611 23.3382 34.2212C23.3382 34.0979 23.0915 33.8512 22.9681 33.4813C22.8447 33.1113 22.7213 32.7414 22.7213 32.4947V32.3714C23.9551 31.6315 25.3123 30.6449 26.6694 29.1651C27.4097 28.4252 27.7798 27.5619 27.7798 26.6987C27.7798 26.5754 27.7798 26.3287 27.6565 26.0821V25.8355V25.7121C27.4097 25.2189 26.9162 24.8489 26.0525 24.7256C25.4356 24.7256 24.8188 24.8489 24.2019 25.2189C22.8447 26.0821 21.7343 27.4386 20.7473 29.1651C20.3771 30.1516 20.1304 31.3848 20.1304 32.618C20.1304 32.7414 20.1304 32.988 20.1304 33.2346C20.1304 33.4813 20.1304 33.8512 20.2538 34.3445C20.7473 35.9477 21.4875 36.8109 22.7213 37.0575H22.9681H23.0915H23.2148C24.4486 37.0575 25.8058 36.4409 27.2863 35.3311C27.7798 34.9611 28.3967 34.3445 28.8902 33.7279C29.2604 33.358 29.7539 32.8647 30.124 32.3714L30.6175 31.8781L30.9877 31.5082C31.6046 31.0149 32.2215 30.275 32.9617 29.4117C34.3189 27.9319 35.1825 26.6987 35.6761 25.9588C35.9228 25.7121 36.0462 25.4655 36.1696 25.0955C36.7865 25.4655 37.1566 25.9588 37.5267 26.5754C38.0203 27.3153 38.267 27.9319 38.267 28.4252C38.267 29.1651 37.8969 30.5216 35.7994 33.1113L34.8124 34.3445L34.3189 34.9611L33.9488 35.4544C33.2085 36.1943 32.715 36.8109 32.4682 37.3042L32.0981 37.9208L31.7279 38.9073C31.3578 39.7706 31.2344 40.2639 31.2344 40.8804C31.2344 42.4836 31.9747 43.2235 33.5786 43.2235C35.1825 43.2235 36.9098 42.6069 38.8839 41.3737C39.5008 40.8804 40.2411 40.3872 40.9813 39.8939C41.1047 39.7706 41.3515 39.5239 41.7216 39.2773L42.3385 38.784C43.4489 37.9208 44.9294 36.5643 46.7801 34.5911L48.8776 32.2481C49.7412 31.2615 50.4815 30.5216 50.975 30.1516L51.0984 30.0283C51.2217 29.905 51.4685 29.6584 51.5919 29.4117C51.8386 29.1651 52.2088 28.7951 52.5789 28.4252L51.7153 31.1382C51.2217 32.8647 50.975 34.3445 50.975 35.4544C50.975 36.5643 51.5919 37.1809 52.7023 37.1809C54.1828 37.0575 55.7867 36.4409 57.514 35.2077C58.0076 34.8378 58.5011 34.3445 58.8712 33.9746C58.1309 36.071 57.7608 37.3042 57.7608 38.0441C57.7608 38.4141 58.0076 38.784 58.3777 38.784C58.6245 38.9073 58.9946 38.9073 59.3647 38.9073C59.9816 38.9073 60.7219 38.1674 61.3388 37.5508L62.3258 36.4409C62.5726 36.1943 62.6959 36.071 62.9427 35.9477C63.0661 35.8243 63.1895 35.701 63.3128 35.701C67.1376 32.618 69.7285 31.1382 70.8389 31.1382C71.0857 31.1382 71.2091 31.2615 71.2091 31.6315C71.2091 32.2481 71.0857 32.8647 70.7155 33.4813C70.3454 34.2212 70.222 34.8378 70.222 35.4544C70.222 36.071 70.4688 37.0575 72.1961 37.0575C73.8 37.0575 75.6507 35.9477 77.8715 33.8512C78.1183 33.6046 78.2416 33.4813 78.4884 33.2346C78.6118 33.358 78.6118 33.4813 78.7351 33.6046C79.1053 33.8512 79.4754 33.9746 79.7222 33.9746C80.5858 33.9746 81.5729 33.4813 83.0534 32.3714C83.5469 32.0014 84.0404 31.6315 84.6573 31.1382L85.6443 30.1516C85.0275 32.1248 84.7807 33.8512 84.7807 35.5777C84.7807 38.0441 85.6443 39.2773 87.495 39.2773C88.9756 39.2773 90.7029 38.4141 92.6769 36.8109C93.2938 36.3176 94.0341 35.5777 94.7743 34.8378L95.2679 34.3445L95.638 33.8512C96.0081 33.4813 96.2549 33.2346 96.3783 33.1113L97.2419 32.2481C97.6121 31.8781 97.9822 31.5082 98.1056 31.2615C99.216 30.1516 99.3393 29.905 99.3393 29.6584C99.3393 29.6584 99.216 29.4117 98.9692 29.2884ZM23.585 29.4117C23.7083 29.0418 23.8317 28.9185 23.9551 28.6718L24.2019 28.1785C24.6954 27.4386 25.4356 27.192 25.8058 27.0687C25.8058 27.0687 25.8058 27.0687 25.9292 27.0687C25.559 28.1785 24.572 29.1651 23.585 29.6584V29.4117ZM36.9098 20.1628C36.5397 20.9027 36.1696 20.9027 36.0462 21.026C35.1825 19.7928 36.9098 19.1762 37.1566 18.9296L36.9098 20.1628Z" fill="white"/>
<path d="M56.8969 18.9295L56.4034 23.739L59.2411 19.7928L64.2996 20.1627L60.2281 17.0797L60.7217 12.2703L57.7606 16.3398L52.8254 15.8465L56.8969 18.9295Z" fill="white"/>
</svg>
